<?xml version="1.0" standalone="no"?><!DOCTYPE svg PUBLIC "-//W3C//DTD SVG 1.1//EN" "http://www.w3.org/Graphics/SVG/1.1/DTD/svg11.dtd"><svg class="icon" viewBox="0 0 1024 1024" version="1.1" xmlns="http://www.w3.org/2000/svg" width="200" height="200"><defs><style type="text/css"/></defs><path d="M880.64 989.866667 143.36 989.866667C122.88 989.866667 102.4 969.386667 102.4 945.493333L102.4 167.253333c0-23.893333 20.48-44.373333 40.96-44.373333l71.68 0 0 44.373333c0 47.786667 37.546667 88.746667 85.333333 88.746667 47.786667 0 85.333333-40.96 85.333333-88.746667L385.706667 122.88l40.96 0 0 44.373333c0 47.786667 37.546667 88.746667 85.333333 88.746667 47.786667 0 85.333333-40.96 85.333333-88.746667L597.333333 122.88l40.96 0 0 44.373333c0 47.786667 37.546667 88.746667 85.333333 88.746667 47.786667 0 85.333333-40.96 85.333333-88.746667L808.96 122.88l71.68 0c23.893333 0 40.96 20.48 40.96 44.373333l0 778.24C921.6 969.386667 901.12 989.866667 880.64 989.866667zM764.586667 378.88 259.413333 378.88c-23.893333 0-40.96 20.48-40.96 44.373333 0 23.893333 20.48 44.373333 40.96 44.373333l508.586667 0c23.893333 0 40.96-20.48 40.96-44.373333C808.96 399.36 788.48 378.88 764.586667 378.88zM764.586667 573.44 259.413333 573.44c-23.893333 0-40.96 20.48-40.96 44.373333 0 23.893333 20.48 44.373333 40.96 44.373333l508.586667 0c23.893333 0 40.96-20.48 40.96-44.373333C808.96 590.506667 788.48 573.44 764.586667 573.44zM774.826667 764.586667 249.173333 764.586667c-20.48 0-34.133333 17.066667-34.133333 37.546667 0 20.48 17.066667 37.546667 34.133333 37.546667l522.24 0c20.48 0 34.133333-17.066667 34.133333-37.546667C808.96 781.653333 791.893333 764.586667 774.826667 764.586667zM723.626667 215.04c-23.893333 0-40.96-20.48-40.96-44.373333L682.666667 78.506667C682.666667 54.613333 699.733333 34.133333 723.626667 34.133333c23.893333 0 40.96 20.48 40.96 44.373333l0 88.746667C764.586667 194.56 747.52 215.04 723.626667 215.04zM512 215.04c-23.893333 0-40.96-20.48-40.96-44.373333L471.04 78.506667C471.04 54.613333 488.106667 34.133333 512 34.133333c23.893333 0 40.96 20.48 40.96 44.373333l0 88.746667C552.96 194.56 535.893333 215.04 512 215.04zM300.373333 215.04c-23.893333 0-40.96-20.48-40.96-44.373333L259.413333 78.506667C259.413333 54.613333 276.48 34.133333 300.373333 34.133333 324.266667 34.133333 341.333333 54.613333 341.333333 78.506667l0 88.746667C341.333333 194.56 324.266667 215.04 300.373333 215.04z"/></svg>